<svg width="40" height="40" viewBox="0 0 40 40" fill="none" xmlns="http://www.w3.org/2000/svg">
<path d="M21.25 12.5V19.2922L26.8937 22.6781C27.178 22.8489 27.3828 23.1255 27.4631 23.4473C27.5434 23.769 27.4926 24.1095 27.3218 24.3938C27.1511 24.678 26.8744 24.8828 26.5527 24.9631C26.2309 25.0434 25.8905 24.9926 25.6062 24.8219L19.3562 21.0719C19.1712 20.9607 19.0182 20.8036 18.9119 20.6158C18.8057 20.4279 18.7499 20.2158 18.75 20V12.5C18.75 12.1685 18.8817 11.8505 19.1161 11.6161C19.3505 11.3817 19.6684 11.25 20 11.25C20.3315 11.25 20.6494 11.3817 20.8838 11.6161C21.1183 11.8505 21.25 12.1685 21.25 12.5ZM35 8.75001C34.6684 8.75001 34.3505 8.8817 34.1161 9.11612C33.8817 9.35054 33.75 9.66849 33.75 10V12.8125C32.7578 11.6625 31.7453 10.5547 30.6062 9.40157C28.5216 7.31674 25.8688 5.89244 22.9794 5.30665C20.0899 4.72087 17.0919 4.99957 14.3599 6.10792C11.628 7.21628 9.2832 9.10515 7.61861 11.5385C5.95402 13.9719 5.04342 16.8418 5.00061 19.7897C4.95779 22.7377 5.78465 25.6329 7.37787 28.1135C8.97108 30.5942 11.26 32.5504 13.9586 33.7376C16.6573 34.9249 19.6459 35.2905 22.5512 34.7889C25.4564 34.2873 28.1494 32.9406 30.2937 30.9172C30.4131 30.8043 30.5092 30.6691 30.5763 30.5191C30.6434 30.3691 30.6804 30.2074 30.685 30.0432C30.6897 29.8789 30.6619 29.7154 30.6034 29.5619C30.5448 29.4083 30.4566 29.2679 30.3437 29.1484C30.2309 29.029 30.0956 28.933 29.9456 28.8659C29.7957 28.7987 29.6339 28.7618 29.4697 28.7571C29.3054 28.7525 29.1419 28.7802 28.9884 28.8388C28.8349 28.8974 28.6944 28.9856 28.575 29.0984C26.7875 30.7829 24.5434 31.9035 22.123 32.3203C19.7025 32.737 17.2128 32.4315 14.965 31.4418C12.7171 30.4521 10.8106 28.8221 9.48357 26.7553C8.15653 24.6886 7.46776 22.2767 7.50326 19.8209C7.53876 17.365 8.29697 14.974 9.68319 12.9465C11.0694 10.919 13.0222 9.34481 15.2978 8.4205C17.5733 7.49618 20.0707 7.26272 22.4782 7.74926C24.8856 8.23581 27.0963 9.4208 28.8343 11.1563C30.1062 12.4438 31.2203 13.6844 32.3437 15H28.75C28.4184 15 28.1005 15.1317 27.8661 15.3661C27.6317 15.6005 27.5 15.9185 27.5 16.25C27.5 16.5815 27.6317 16.8995 27.8661 17.1339C28.1005 17.3683 28.4184 17.5 28.75 17.5H35C35.3315 17.5 35.6494 17.3683 35.8838 17.1339C36.1183 16.8995 36.25 16.5815 36.25 16.25V10C36.25 9.66849 36.1183 9.35054 35.8838 9.11612C35.6494 8.8817 35.3315 8.75001 35 8.75001Z" fill="#939189"/>
</svg>
