<svg width="40" height="40" viewBox="0 0 40 40" fill="none" xmlns="http://www.w3.org/2000/svg">
<path d="M35.8847 34.1156L28.0613 26.2938C30.3288 23.5714 31.4596 20.0797 31.2182 16.5449C30.9769 13.0101 29.3821 9.70447 26.7656 7.31559C24.1491 4.92671 20.7123 3.63853 17.1702 3.71903C13.6281 3.79953 10.2534 5.24251 7.74814 7.74779C5.24286 10.2531 3.79988 13.6278 3.71938 17.1699C3.63888 20.7119 4.92706 24.1487 7.31594 26.7652C9.70482 29.3817 13.0105 30.9765 16.5453 31.2179C20.08 31.4592 23.5718 30.3285 26.2941 28.0609L34.116 35.8844C34.2321 36.0005 34.37 36.0926 34.5217 36.1555C34.6735 36.2184 34.8361 36.2507 35.0004 36.2507C35.1646 36.2507 35.3272 36.2184 35.479 36.1555C35.6307 36.0926 35.7686 36.0005 35.8847 35.8844C36.0009 35.7682 36.093 35.6304 36.1558 35.4786C36.2187 35.3269 36.2511 35.1643 36.2511 35C36.2511 34.8358 36.2187 34.6731 36.1558 34.5214C36.093 34.3696 36.0009 34.2318 35.8847 34.1156ZM6.25036 17.5C6.25036 15.275 6.91016 13.0999 8.14632 11.2498C9.38249 9.39979 11.1395 7.95785 13.1952 7.10636C15.2508 6.25488 17.5128 6.03209 19.6951 6.46617C21.8774 6.90025 23.882 7.97171 25.4553 9.54505C27.0286 11.1184 28.1001 13.123 28.5342 15.3052C28.9683 17.4875 28.7455 19.7495 27.894 21.8052C27.0425 23.8609 25.6006 25.6179 23.7505 26.854C21.9005 28.0902 19.7254 28.75 17.5004 28.75C14.5177 28.7467 11.6581 27.5604 9.54906 25.4513C7.43999 23.3422 6.25367 20.4827 6.25036 17.5Z" fill="#939189"/>
</svg>
