<svg width="121" height="168" viewBox="0 0 121 168" fill="none" xmlns="http://www.w3.org/2000/svg">
<path d="M64.7179 81.4065C64.7179 81.4065 71.1686 79.5244 72.9101 82.7531C75.0459 86.7142 78.9469 103.873 83.2105 112.106C87.4741 120.339 90.0989 121.341 99.657 129.344C110.81 138.683 114.797 143.269 97.7111 137.001C81.9014 131.204 87.8841 141.495 68.959 138.693C45.4052 135.205 54.6337 127.903 47.2061 133.963C30.4563 147.629 29.8288 133.48 25.1592 137.642C20.4895 141.804 52.9634 89.1397 57.3944 82.7531C59.2032 80.1465 64.7192 81.4065 64.7192 81.4065H64.7179Z" fill="#E25656"/>
<path d="M81.1866 135.466C81.3632 135.125 81.3896 134.21 79.6955 133.353C78.4536 132.724 77.039 130.237 75.3805 115.406C74.0358 103.38 72.4116 99.2394 72.7675 100.998C73.1235 102.757 74.3812 114.702 75.631 123.435C77.4121 135.871 79.2051 135.638 79.9658 135.861C80.2466 135.944 80.9572 135.904 81.1866 135.464V135.466Z" fill="#D13939"/>
<path d="M57.4395 102.235C57.4553 102.187 58.423 98.5149 57.218 101.418C56.0895 104.136 54.3176 114.608 52.6037 120.721C51.3434 125.219 48.5933 134.424 51.4713 127.694C53.0559 123.989 54.8107 116.855 55.0506 113.516C55.2985 110.079 56.5918 104.82 57.4408 102.235H57.4395Z" fill="#D13939"/>
<path d="M78.6742 129.611H52.3689C51.3438 129.611 50.5127 130.438 50.5127 131.459V131.46C50.5127 132.481 51.3438 133.308 52.3689 133.308H78.6742C79.6994 133.308 80.5304 132.481 80.5304 131.46V131.459C80.5304 130.438 79.6994 129.611 78.6742 129.611Z" fill="#749AC4"/>
<path d="M72.3825 151.247H58.5055C58.0424 151.247 57.667 151.621 57.667 152.082C57.667 152.543 58.0424 152.917 58.5055 152.917H72.3825C72.8456 152.917 73.221 152.543 73.221 152.082C73.221 151.621 72.8456 151.247 72.3825 151.247Z" fill="#749AC4"/>
<path d="M70.3267 133.308H60.7158V151.247H70.3267V133.308Z" fill="#B4C5D8"/>
<path d="M70.3267 64.5986H60.7158V129.611H70.3267V64.5986Z" fill="#B4C5D8"/>
<path d="M72.3747 64.5986H58.582V99.5978H72.3747V64.5986Z" fill="#0DA0D3"/>
<path d="M65.874 40.1625H65.2939V15.1082L65.874 15.5833V40.1625Z" fill="#C6C6C6"/>
<path d="M68.4872 60.0114V57.5964L67.1675 40.9342C67.1675 40.6612 66.9658 40.4394 66.7061 40.4053C66.6507 39.8252 66.1695 39.3711 65.5841 39.3711C64.9988 39.3711 64.5176 39.8239 64.4622 40.4027C64.1458 40.425 63.8953 40.6888 63.8953 41.0156L62.3489 57.5702V60.2031L57.7939 63.5827H73.2504L68.4885 60.0101L68.4872 60.0114Z" fill="#749AC4"/>
<path d="M58.1699 63.1588H72.8432C73.0594 63.1588 73.2348 63.3334 73.2348 63.5486V64.6406H57.7783V63.5486C57.7783 63.3334 57.9537 63.1588 58.1699 63.1588Z" fill="#3E4956"/>
<path opacity="0.69" d="M73.1723 64.6406H57.7158V129.653H73.1723V64.6406Z" fill="#EEF4FF"/>
<path d="M60.8219 73.3491H57.7158" stroke="#2E3A4C" stroke-miterlimit="10"/>
<path d="M60.8219 84.042H57.7158" stroke="#2E3A4C" stroke-miterlimit="10"/>
<path d="M60.8219 95.2901H57.7158" stroke="#2E3A4C" stroke-miterlimit="10"/>
<path d="M60.8219 106.242H57.7158" stroke="#2E3A4C" stroke-miterlimit="10"/>
<path d="M60.8219 117.259H57.7158" stroke="#2E3A4C" stroke-miterlimit="10"/>
<path d="M59.4481 115.093H57.7158" stroke="#2E3A4C" stroke-miterlimit="10"/>
<path d="M59.4481 112.912H57.7158" stroke="#2E3A4C" stroke-miterlimit="10"/>
<path d="M59.4481 110.642H57.7158" stroke="#2E3A4C" stroke-miterlimit="10"/>
<path d="M59.4481 108.441H57.7158" stroke="#2E3A4C" stroke-miterlimit="10"/>
<path d="M59.4481 104.092H57.7158" stroke="#2E3A4C" stroke-miterlimit="10"/>
<path d="M59.4481 101.91H57.7158" stroke="#2E3A4C" stroke-miterlimit="10"/>
<path d="M59.4481 99.6411H57.7158" stroke="#2E3A4C" stroke-miterlimit="10"/>
<path d="M59.4481 97.44H57.7158" stroke="#2E3A4C" stroke-miterlimit="10"/>
<path d="M59.4709 93.135H57.7373" stroke="#2E3A4C" stroke-miterlimit="10"/>
<path d="M59.4709 90.9536H57.7373" stroke="#2E3A4C" stroke-miterlimit="10"/>
<path d="M59.4709 88.6843H57.7373" stroke="#2E3A4C" stroke-miterlimit="10"/>
<path d="M59.4709 86.4846H57.7373" stroke="#2E3A4C" stroke-miterlimit="10"/>
<path d="M59.4709 82.194H57.7373" stroke="#2E3A4C" stroke-miterlimit="10"/>
<path d="M59.4709 80.0126H57.7373" stroke="#2E3A4C" stroke-miterlimit="10"/>
<path d="M59.4709 77.7433H57.7373" stroke="#2E3A4C" stroke-miterlimit="10"/>
<path d="M59.4709 75.5436H57.7373" stroke="#2E3A4C" stroke-miterlimit="10"/>
<path d="M72.3747 96.8533H58.582V100.039H72.3747V96.8533Z" fill="#3E4956"/>
<path d="M72.9917 63.7337C72.8414 63.7626 72.9601 63.5237 72.6661 63.4016C72.4815 63.3255 72.4446 63.3596 72.4051 63.3347C72.2943 63.2651 72.5145 63.1772 72.8164 63.2769C73.1183 63.3767 73.1288 63.7074 72.9917 63.7337Z" fill="#FCFCFC"/>
<path d="M69.2536 64.3834C69.2536 64.4267 66.932 64.4214 63.7877 64.4214C60.6434 64.4214 57.9658 64.386 57.9658 64.3427C57.9658 64.2994 60.6434 64.2626 63.7877 64.2626C66.932 64.2626 69.2536 64.3401 69.2536 64.3834Z" fill="#FCFCFC"/>
<path opacity="0.77" d="M70.7446 68.5746C71.0383 67.9987 70.6075 67.1937 69.7823 66.7766C68.9572 66.3595 68.0501 66.4882 67.7564 67.064C67.4627 67.6399 67.8935 68.4449 68.7187 68.862C69.5438 69.2791 70.4508 69.1505 70.7446 68.5746Z" fill="#FCFCFC"/>
<path opacity="0.77" d="M62.618 72.4815C63.5434 72.4815 64.2937 71.7346 64.2937 70.8133C64.2937 69.892 63.5434 69.1451 62.618 69.1451C61.6926 69.1451 60.9424 69.892 60.9424 70.8133C60.9424 71.7346 61.6926 72.4815 62.618 72.4815Z" fill="#FCFCFC"/>
<path opacity="0.77" d="M69.9448 75.6557C70.4698 75.2762 70.4546 74.3643 69.911 73.6187C69.3673 72.8732 68.5009 72.5764 67.976 72.9558C67.451 73.3353 67.4661 74.2473 68.0098 74.9928C68.5535 75.7384 69.4199 76.0351 69.9448 75.6557Z" fill="#FCFCFC"/>
<path opacity="0.77" d="M61.2299 67.1055C61.6405 67.1055 61.9734 66.7741 61.9734 66.3653C61.9734 65.9564 61.6405 65.625 61.2299 65.625C60.8192 65.625 60.4863 65.9564 60.4863 66.3653C60.4863 66.7741 60.8192 67.1055 61.2299 67.1055Z" fill="#FCFCFC"/>
<path opacity="0.77" d="M71.0326 71.8174C71.3828 71.8174 71.6667 71.5347 71.6667 71.1861C71.6667 70.8374 71.3828 70.5547 71.0326 70.5547C70.6823 70.5547 70.3984 70.8374 70.3984 71.1861C70.3984 71.5347 70.6823 71.8174 71.0326 71.8174Z" fill="#FCFCFC"/>
<path d="M67.3961 85.0658C67.3961 85.0658 72.6102 84.0604 73.2403 83.0274C73.8705 81.9945 73.2403 79.1306 73.2403 79.1306C73.2403 79.1306 68.9478 79.5309 67.0717 81.585C65.1957 83.6377 67.3961 85.0658 67.3961 85.0658Z" fill="#E54539"/>
<path d="M67.3128 83.2046C67.1849 83.1679 67.1506 83.0025 67.2548 82.9198C67.4538 82.7623 67.7162 82.6009 67.968 82.4906C68.5942 82.2163 69.6041 81.9013 69.9917 81.9302C70.4162 81.963 69.8361 82.1796 69.1677 82.4578C68.5995 82.6941 68.7432 82.8227 68.0326 83.0406C67.6621 83.1534 67.3866 83.1994 67.3128 83.2046Z" fill="#D33733"/>
<path d="M63.2257 84.8137C63.2257 84.8137 58.2806 83.8504 57.682 82.8607C57.0835 81.8711 57.682 79.1293 57.682 79.1293C57.682 79.1293 61.7531 79.5126 63.5316 81.4787C65.3101 83.4448 63.2244 84.8124 63.2244 84.8124L63.2257 84.8137Z" fill="#E54539"/>
<path d="M63.5395 83.2046C63.6674 83.1679 63.7016 83.0025 63.5975 82.9198C63.3984 82.7623 63.1361 82.6009 62.8842 82.4906C62.258 82.2163 61.2482 81.9013 60.8606 81.9302C60.4361 81.963 61.0161 82.1796 61.6845 82.4578C62.2528 82.6941 62.109 82.8227 62.8196 83.0406C63.1901 83.1534 63.4656 83.1994 63.5395 83.2046Z" fill="#D33733"/>
<path d="M67.5854 83.0957C67.5854 84.8361 67.5234 86.247 65.1002 86.247C62.6771 86.247 63.3785 84.8361 63.3785 83.0957C63.3785 81.3553 62.6771 79.9444 65.1002 79.9444C67.5234 79.9444 67.5854 81.3553 67.5854 83.0957Z" fill="#E54539"/>
<path d="M65.6087 74.3072L57.0117 72.6206V68.5138H65.6087V74.3072Z" fill="white"/>
<path d="M65.4316 74.3072L74.0287 72.6206V68.5138H65.4316V74.3072Z" fill="#F4F4F4"/>
<path d="M61.2486 73.4514L60.4471 73.2939L59.6455 68.5138H60.4471L61.2486 73.4514Z" fill="#F4F4F4"/>
<path d="M59.4703 73.0931L58.6688 72.9474L57.8672 68.5138H58.6688L59.4703 73.0931Z" fill="#F4F4F4"/>
</svg>
