<svg width="273" height="152" viewBox="0 0 273 152" fill="none" xmlns="http://www.w3.org/2000/svg">
<g clip-path="url(#clip0_28_707)">
<path d="M273 99.2516C273 99.2516 183.488 87.212 148.824 62.4932C114.16 37.7744 132.58 -2.25729 113.184 0.113003C113.184 0.113003 103.468 -2.21967 102.305 32.4318C102.305 32.4318 100.767 39.0536 84.0346 28.1427C67.3027 17.2318 54.5099 3.61201 54.5099 3.61201C54.5099 3.61201 38.9785 -3.38601 42.8426 8.27736C46.7067 19.9407 73.5303 42.9288 73.5303 42.9288L38.9785 23.0635C38.9785 23.0635 23.072 13.3189 17.6322 14.4853C12.1925 15.6516 17.6322 28.8952 17.6322 28.8952L59.1994 63.5467C59.1994 63.5467 39.0161 59.408 27.3487 49.5882C15.6814 39.7684 9.07872 35.1031 4.4268 36.2694C-0.225118 37.4358 -0.225117 40.2199 0.150038 43.3427C0.525192 46.4655 25.0228 67.4972 41.7172 77.6179C58.4115 87.7387 50.6458 85.7823 50.6458 85.7823C50.6458 85.7823 18.0074 72.5387 14.5185 73.7051C11.0295 74.8714 1.31302 70.5823 6.75276 80.7031C12.1925 90.8239 66.9651 108.357 66.9651 108.357C66.9651 108.357 76.2689 117.311 110.858 115.355C145.447 113.398 238.636 151.962 238.636 151.962L273.038 99.214L273 99.2516Z" fill="#FBDACB"/>
<path opacity="0.59" d="M207.648 140.036C207.648 140.036 221.341 117.236 189.378 102.261C163.08 89.9208 148.449 108.432 144.397 116.032C143.722 117.349 144.472 118.929 145.898 119.23C152.163 120.547 170.658 126.83 207.648 140.036Z" fill="url(#paint0_linear_28_707)"/>
</g>
<defs>
<linearGradient id="paint0_linear_28_707" x1="173.209" y1="132.887" x2="191.03" y2="102.08" gradientUnits="userSpaceOnUse">
<stop offset="0.16" stop-color="#FF7878"/>
<stop offset="0.32" stop-color="#FF5959"/>
<stop offset="0.52" stop-color="#FF2A2A"/>
<stop offset="0.64" stop-color="#FF3838"/>
<stop offset="0.85" stop-color="#FF5959"/>
<stop offset="0.91" stop-color="#FE5A5A"/>
<stop offset="0.94" stop-color="#FE6160"/>
<stop offset="0.95" stop-color="#FE6D6B"/>
<stop offset="0.97" stop-color="#FD7E7A"/>
<stop offset="0.98" stop-color="#FD948D"/>
<stop offset="0.99" stop-color="#FCAFA5"/>
<stop offset="1" stop-color="#FBDACB"/>
</linearGradient>
<clipPath id="clip0_28_707">
<rect width="273" height="152" fill="white"/>
</clipPath>
</defs>
</svg>
