<svg width="196" height="224" viewBox="0 0 196 224" fill="none" xmlns="http://www.w3.org/2000/svg">
<g clip-path="url(#clip0_28_702)">
<path d="M154.082 0L129.898 45.4612C129.898 45.4612 115.697 50.241 98.793 60.3754C81.889 70.5099 80.4473 78.6677 59.6867 81.5787C38.9261 84.4896 21.5175 84.6334 21.5175 84.6334C21.5175 84.6334 9.44324 87.2209 11.8581 90.8866C14.273 94.5522 19.1027 101.309 35.0335 101.776C50.9644 102.243 50.9644 97.9304 60.1553 101.776C63.8316 103.321 65.2373 106.627 65.6338 110.041C66.2465 115.432 64.2641 120.787 60.6599 124.848C51.505 135.126 28.2575 161.109 17.1564 172.537C3.13578 186.984 -6.01906 198.053 4.61353 197.083C15.2461 196.112 23.9324 192.734 39.8633 178.287C55.7941 163.84 60.0111 155.035 65.6698 155.035C71.3285 155.035 58.0648 174.442 58.0648 174.442C58.0648 174.442 37.1961 206.211 39.1784 213.255C39.1784 213.255 38.6018 220.55 44.5488 219.436C50.4958 218.322 59.7948 206.211 65.1292 196.939C70.4635 187.667 76.9872 173.579 81.4925 173.04C85.9979 172.501 78.6812 195.825 78.6812 195.825C78.6812 195.825 73.2027 218.609 77.0593 222.527C78.501 224 80.195 224.144 81.7809 223.712C84.5922 222.958 86.6106 220.514 87.1873 217.675C88.4848 211.206 92.2693 201.144 96.1619 189.033C99.5499 178.467 105.461 173.831 108.308 174.981C111.156 176.131 98.4686 205.636 101.424 214.369C104.38 223.102 104.92 221.125 107.479 221.952C110.038 222.778 115.084 216.058 116.238 210.128C117.391 204.198 136.277 162.87 136.53 163.732C136.782 164.595 167.274 127.184 172.933 95.9538C172.933 95.9538 174.915 85.5318 182.232 78.524C189.548 71.5161 196.036 61.9207 196.036 61.9207L154.082 0Z" fill="#FBDACB"/>
<path opacity="0.59" d="M65.4175 114.462C65.4175 114.462 90.5752 112.162 113.066 116.438C135.556 120.715 138.548 121.146 131.7 121.146C124.852 121.146 118.22 117.948 115.445 121.146C112.669 124.345 64.6245 122.116 60.3354 125.315C60.3354 125.315 65.4896 119.601 65.4535 114.498L65.4175 114.462Z" fill="#FF2A2A"/>
</g>
<defs>
<clipPath id="clip0_28_702">
<rect width="196" height="224" fill="white"/>
</clipPath>
</defs>
</svg>
